<svg width="59" height="59" viewBox="0 0 59 59" fill="none" xmlns="http://www.w3.org/2000/svg">
<g clip-path="url(#clip0_8928_19050)">
<path d="M22.1096 24.0879V36.4497C22.1096 38.3288 22.6689 38.8569 24.612 38.8569V39.4732H18.4588V38.8569C20.4019 38.8569 20.9612 38.3288 20.9612 36.4497V20.2833C19.09 20.2833 18.3439 20.2735 17.7227 20.2735V19.6572H24.1766L37.5951 34.0992V22.6807C37.5951 20.8312 37.0655 20.2735 35.1224 20.2735V19.6572H41.0988V20.2735C39.3614 20.2735 38.7732 20.8312 38.7732 22.6807V39.7673H36.602L22.1096 24.0879Z" fill="#F8F6F3"/>
<path d="M58.8108 28.8742C55.935 30.2615 53.7564 33.6014 52.9484 35.1815C52.5155 36.0293 52.2239 37.0129 51.5712 38.2528C52.0347 37.0904 52.3445 35.8999 52.5238 34.6716C52.684 33.5685 52.7939 32.4587 52.8583 31.3507C54.3074 29.4196 56.5125 27.1828 57.3791 25.5772C59.4387 21.7603 57.4749 16.6903 56.4637 15.6811C56.5108 17.6287 53.8935 19.3777 53.2566 22.2875C52.9674 23.6098 52.8212 24.6874 52.7518 25.6208C52.5692 23.7565 52.2379 21.9489 51.7612 20.2428C53.1673 18.0489 54.2232 13.7278 53.8968 11.8511C53.373 8.84735 51.577 6.75643 49.5397 5.7431C49.6058 7.12551 48.0765 8.38435 48.8573 11.3321C49.4761 13.6693 50.4022 14.8573 51.0565 18.0711C49.9676 15.1448 48.488 12.726 46.6432 10.8452C45.6377 8.49639 44.8297 5.30234 41.9877 3.13398C38.3171 0.334561 36.0592 2.28872 32.1697 0.0429192C33.456 3.2798 32.81 6.70865 36.293 9.0393C38.2428 10.3434 43.3674 10.1004 46.1301 11.3971C48.2765 13.6158 49.6578 16.2842 50.4988 18.6124C49.7536 17.1731 48.825 15.8846 48.0947 15.2783C45.7179 13.3052 42.6875 12.3223 39.4704 12.7993C40.5833 13.3604 41.2087 16.6417 44.258 18.4394C47.0703 20.0969 49.3488 20.1744 51.7439 23.4516C52.1239 25.7131 52.2718 28.094 52.185 30.498C51.8661 27.874 50.9367 26.5773 49.8528 25.358C49.0911 24.5004 46.867 22.8898 45.1362 22.4696C45.7055 24.2104 45.6377 27.1688 46.3672 28.4408C48.217 31.6703 50.7508 32.1753 51.1317 37.3779C51.1358 37.3721 51.1399 37.3656 51.1432 37.3598C50.3947 39.5273 49.115 41.5968 47.1512 43.635C47.9873 42.536 48.6425 41.334 48.9324 40.1188C49.8082 36.4511 48.2566 34.2481 45.8963 32.6738C46.5432 35.6025 44.4629 36.3671 44.681 42.1043C44.7934 45.0644 43.3674 46.4476 41.5226 48.1711C40.8642 48.5715 39.9975 49.051 39.0458 49.5321C41.2566 47.5862 42.2133 45.0331 42.1918 42.5549C40.727 43.897 38.0982 45.0347 36.0526 46.8052C33.5048 49.0098 32.3456 51.8158 30.7429 52.5457C30.6983 52.5663 30.652 52.582 30.6049 52.5951C30.2076 52.7072 29.8093 52.8225 29.4111 52.9436C29.0088 52.8217 28.6065 52.7047 28.2058 52.5919C28.1661 52.5803 28.1273 52.568 28.0901 52.5507C26.4816 51.829 25.3225 49.0147 22.7688 46.8052C20.7232 45.0355 18.0952 43.897 16.6296 42.5549C16.6073 45.0339 17.564 47.5862 19.7756 49.5321C18.8247 49.051 17.9581 48.5715 17.2988 48.1711C15.4532 46.4476 14.0272 45.0644 14.1404 42.1043C14.3585 36.3662 12.2783 35.6025 12.9251 32.6738C10.5648 34.2481 9.01327 36.4511 9.889 40.1188C10.179 41.334 10.8341 42.5352 11.6702 43.635C9.70642 41.5968 8.42587 39.5273 7.6782 37.3598C7.68233 37.3656 7.68563 37.3721 7.68976 37.3779C8.07062 32.1753 10.6045 31.6703 12.4542 28.4408C13.1829 27.1688 13.116 24.2112 13.6852 22.4696C11.9544 22.889 9.7312 24.5004 8.96866 25.358C7.88474 26.5773 6.95531 27.8732 6.63641 30.498C6.54967 28.094 6.69755 25.7139 7.07758 23.4516C9.47179 20.1744 11.7512 20.0969 14.5634 18.4394C17.6128 16.6417 18.2382 13.3604 19.351 12.7993C16.1339 12.3223 13.1036 13.3052 10.7267 15.2783C9.9964 15.8846 9.0678 17.1731 8.3226 18.6124C9.16363 16.2842 10.545 13.6166 12.6913 11.3971C15.4532 10.1012 20.5787 10.3443 22.5284 9.0393C26.0115 6.70947 25.3646 3.2798 26.6518 0.0429192C22.7622 2.2879 20.5043 0.334561 16.8337 3.13398C13.9917 5.30152 13.1837 8.49639 12.1783 10.8452C10.3335 12.726 8.85382 15.1448 7.76495 18.0711C8.41926 14.8573 9.34539 13.6693 9.96418 11.3321C10.7441 8.38435 9.21568 7.12551 9.28177 5.7431C7.24447 6.75643 5.4484 8.84735 4.92461 11.8511C4.59745 13.7278 5.65328 18.0489 7.06023 20.2428C6.58436 21.9489 6.25225 23.7565 6.06967 25.6208C6.00027 24.6874 5.85404 23.6098 5.56488 22.2875C4.92792 19.3769 2.31065 17.6287 2.35774 15.6811C1.34652 16.6903 -0.617262 21.7603 1.44235 25.5772C2.30899 27.1828 4.51401 29.4204 5.96309 31.3507C6.02671 32.4587 6.13659 33.5685 6.29769 34.6716C6.47614 35.8991 6.78678 37.0896 7.25025 38.2528C6.59841 37.0129 6.30678 36.0285 5.87304 35.1815C5.06506 33.6022 2.88648 30.2615 0.0106201 28.8742C0.729378 30.6801 -0.892373 33.6525 2.13137 37.5287C3.63993 39.4622 7.4791 41.4872 9.80143 42.5714C10.816 43.8385 12.0668 45.0866 13.5861 46.329C10.8407 44.5124 8.15242 42.7016 4.32978 42.6596C5.05928 43.1794 6.03084 45.8503 8.24247 47.4618C10.4599 49.079 14.8724 49.8369 18.0671 49.4159C19.0627 49.972 20.2532 50.58 21.447 51.113C18.8446 50.6443 15.7936 50.6484 12.189 51.726C13.059 51.8957 15.1318 53.6579 17.5277 53.9907C22.8366 54.7289 24.5798 52.5037 27.5729 53.1438C27.6332 53.157 27.9777 53.2666 28.1909 53.3341C25.4175 54.2733 22.6408 55.6104 19.9995 58.1775L20.4068 58.7781C22.8407 56.4219 25.9991 54.9052 29.412 53.7345C32.8248 54.906 35.9832 56.4219 38.4171 58.7781L38.8244 58.1775C36.1832 55.6112 33.4064 54.2741 30.633 53.3341C30.8445 53.2666 31.1973 53.1562 31.251 53.1438C34.2326 52.4518 35.9865 54.7289 41.2963 53.9907C43.6921 53.6579 45.7649 51.8957 46.6349 51.726C43.0304 50.6484 39.9794 50.6443 37.377 51.113C38.5716 50.58 39.7613 49.9728 40.7568 49.4159C43.9515 49.8369 48.3632 49.0782 50.5815 47.4618C52.7923 45.8495 53.7646 43.1794 54.4941 42.6596C50.6715 42.7016 47.9832 44.5132 45.2379 46.3298C46.7572 45.0874 48.008 43.8393 49.0225 42.5723C51.3448 41.4881 55.184 39.4631 56.6925 37.5295C59.7163 33.6533 58.0937 30.6809 58.8133 28.875L58.8108 28.8742Z" fill="#F8F6F3"/>
</g>
<defs>
<clipPath id="clip0_8928_19050">
<rect width="58.6577" height="58.8225" fill="white"/>
</clipPath>
</defs>
</svg>
