<svg width="1548" height="240" viewBox="0 0 1548 240" fill="none" xmlns="http://www.w3.org/2000/svg">
<g>
<path d="M56.6486 43.9082V196.004C56.6486 218.77 64.5784 225.66 85.2804 225.66V236.352H9.41104V225.66C30.4543 225.66 38.0428 218.754 38.0428 196.004V27.7073C24.5881 14.6101 12.1734 14.2527 0.1 14.2527V3.56042H71.1432L230.47 172.897V43.9082C230.47 21.8412 222.541 14.2527 201.839 14.2527V3.56042H275.986V14.2527C257.705 14.2527 249.093 21.8412 249.093 43.9082V239.797H242.186L56.6486 43.9082Z" fill="white"/>
<path d="M321.502 119.778C321.502 46.3139 377.71 0.0999756 450.492 0.0999756C523.274 0.0999756 580.163 46.3139 580.163 119.778C580.163 193.243 523.956 239.798 450.492 239.798C377.027 239.798 321.502 193.584 321.502 119.778ZM537.736 119.778C537.736 61.491 506.358 18.0395 450.475 18.0395C394.593 18.0395 363.914 61.491 363.914 119.778C363.914 178.066 395.292 221.858 450.475 221.858C505.659 221.858 537.736 178.407 537.736 119.778Z" fill="white"/>
<path d="M653.968 201.854V38.042C653.968 20.46 648.443 14.2526 625.694 14.2526V3.56036H720.884V14.2526C698.476 14.2526 692.61 20.46 692.61 38.042V113.57L792.285 42.1857C803.318 34.2559 809.184 28.731 809.184 22.5236C809.184 17.3562 805.041 14.2526 798.492 14.2526H790.903V3.56036H879.886V14.2526C862.987 14.5939 852.636 20.1187 820.218 43.5669L732.616 105.982L845.388 207.022C864.01 223.58 876.425 225.644 885.395 225.644V236.336H821.94L692.61 120.119V201.854C692.61 219.436 698.476 225.644 720.884 225.644V236.336H625.694V225.644C648.46 225.644 653.968 219.436 653.968 201.854Z" fill="white"/>
<path d="M902.26 119.778C902.26 46.3139 958.467 0.0999756 1031.25 0.0999756C1104.03 0.0999756 1160.92 46.3139 1160.92 119.778C1160.92 193.243 1104.71 239.798 1031.25 239.798C957.785 239.798 902.26 193.584 902.26 119.778ZM1118.51 119.778C1118.51 61.491 1087.13 18.0395 1031.25 18.0395C975.367 18.0395 944.688 61.491 944.688 119.778C944.688 178.066 976.066 221.858 1031.25 221.858C1086.43 221.858 1118.51 178.407 1118.51 119.778Z" fill="white"/>
<path d="M1216.79 224.279V159.102H1228.16C1230.92 204.617 1263.68 221.874 1303.69 221.874C1346.46 221.874 1366.8 202.911 1366.8 180.487C1366.8 162.905 1355.07 150.49 1326.8 142.203L1274.03 127.367C1235.07 115.992 1217.13 93.5676 1217.13 65.9758C1217.13 28.3905 1250.93 0.0999756 1310.94 0.0999756C1347.16 0.0999756 1373.37 7.68858 1390.95 13.5547V74.6044H1379.58C1377.51 31.8355 1345.78 17.6983 1310.26 17.6983C1272.67 17.6983 1252.67 33.8991 1252.67 54.9423C1252.67 72.5244 1267.15 84.2566 1296.46 92.1864L1348.88 107.022C1388.89 118.397 1402.34 142.203 1402.34 167.715C1402.34 211.507 1363.38 239.44 1303.02 239.44C1265.78 239.781 1238.19 231.51 1216.8 224.263L1216.79 224.279Z" fill="white"/>
<path d="M1480.28 201.854V38.042C1480.28 20.46 1474.75 14.2526 1452 14.2526V3.56036H1547.19V14.2526C1524.77 14.2526 1518.92 20.46 1518.92 38.042V201.854C1518.92 219.436 1524.78 225.644 1547.19 225.644V236.336H1452V225.644C1474.77 225.644 1480.28 219.436 1480.28 201.854Z" fill="white"/>
</g>
</svg>
